<mxfile host="app.diagrams.net" modified="2023-07-20T22:19:13.358Z" agent="Mozilla/5.0 (Windows NT 10.0; Win64; x64) AppleWebKit/537.36 (KHTML, like Gecko) Chrome/114.0.0.0 Safari/537.36" etag="A8oS-Yom79IvDS9-nILr" version="21.6.5" type="github">
  <diagram name="Page-1" id="YSngG0qGiOhu6M7bXhyd">
    <mxGraphModel dx="934" dy="1615" grid="1" gridSize="10" guides="1" tooltips="1" connect="1" arrows="1" fold="1" page="1" pageScale="1" pageWidth="850" pageHeight="1100" math="0" shadow="0">
      <root>
        <mxCell id="0" />
        <mxCell id="1" parent="0" />
        <mxCell id="AsTAmV6llMDFFiS0ubSx-2" value="&lt;div style=&quot;line-height: 150%;&quot;&gt;&lt;span style=&quot;background-color: initial; color: rgb(255, 255, 255);&quot;&gt;ChipControl&amp;nbsp;&lt;/span&gt;&lt;br&gt;&lt;/div&gt;" style="rounded=1;whiteSpace=wrap;html=1;fillColor=#003300;strokeColor=#6c8ebf;gradientColor=none;align=left;arcSize=18;" vertex="1" parent="1">
          <mxGeometry x="90" y="-120" width="630" height="400" as="geometry" />
        </mxCell>
        <mxCell id="AsTAmV6llMDFFiS0ubSx-3" value="&lt;font color=&quot;#ffffff&quot;&gt;LTC 2943 Device Driver&lt;/font&gt;" style="rounded=1;whiteSpace=wrap;html=1;fillColor=#4D4D4D;strokeColor=#6c8ebf;gradientColor=none;align=left;arcSize=18;" vertex="1" parent="1">
          <mxGeometry x="310" y="170" width="190" height="110" as="geometry" />
        </mxCell>
        <mxCell id="AsTAmV6llMDFFiS0ubSx-7" style="edgeStyle=orthogonalEdgeStyle;rounded=0;orthogonalLoop=1;jettySize=auto;html=1;exitX=0.5;exitY=1;exitDx=0;exitDy=0;entryX=0.5;entryY=0;entryDx=0;entryDy=0;startArrow=classic;startFill=1;" edge="1" parent="1" source="AsTAmV6llMDFFiS0ubSx-4" target="AsTAmV6llMDFFiS0ubSx-5">
          <mxGeometry relative="1" as="geometry" />
        </mxCell>
        <mxCell id="AsTAmV6llMDFFiS0ubSx-8" value="I2C Commands and Telemetry" style="edgeLabel;html=1;align=center;verticalAlign=middle;resizable=0;points=[];" vertex="1" connectable="0" parent="AsTAmV6llMDFFiS0ubSx-7">
          <mxGeometry x="-0.1829" y="4" relative="1" as="geometry">
            <mxPoint x="-4" as="offset" />
          </mxGeometry>
        </mxCell>
        <mxCell id="AsTAmV6llMDFFiS0ubSx-4" value="&lt;font color=&quot;#ffffff&quot;&gt;Device I2C Driver&lt;/font&gt;" style="rounded=1;whiteSpace=wrap;html=1;fillColor=#CCCCCC;strokeColor=#6c8ebf;gradientColor=none;align=left;arcSize=18;" vertex="1" parent="1">
          <mxGeometry x="350" y="240" width="110" height="40" as="geometry" />
        </mxCell>
        <mxCell id="AsTAmV6llMDFFiS0ubSx-5" value="&lt;font color=&quot;#ffffff&quot;&gt;LTC 2943&lt;/font&gt;" style="rounded=1;whiteSpace=wrap;html=1;fillColor=#e51400;strokeColor=#B20000;align=left;arcSize=18;fontColor=#ffffff;" vertex="1" parent="1">
          <mxGeometry x="310" y="360" width="190" height="110" as="geometry" />
        </mxCell>
        <mxCell id="AsTAmV6llMDFFiS0ubSx-9" value="&lt;font color=&quot;#ffffff&quot;&gt;LTC 2943 Device Driver&lt;/font&gt;" style="rounded=1;whiteSpace=wrap;html=1;fillColor=#4D4D4D;strokeColor=#6c8ebf;gradientColor=none;align=left;arcSize=18;" vertex="1" parent="1">
          <mxGeometry x="320" y="-160" width="190" height="110" as="geometry" />
        </mxCell>
      </root>
    </mxGraphModel>
  </diagram>
</mxfile>
